PathFileType	4	(X/Y/Z)	 s07c0302.trc
DataRate	CameraRate	NumFrames	NumMarkers	Units	OrigDataRate	OrigDataStartFrame	OrigNumFrames
200	200	6	48	mm	200	1001	2000
Frame#	Time	racr			lacr			c7			jug			rlel			rdr			llel			ldr			s2			lic			ric			lasi			rasi			rpsi			lpsi			rgt			lgt			rth1			rth2			rth3			rth4			rlfc			rmfc			rsh1			rsh2			rsh3			rsh4			rlmal			rcal			rtoe			rmt5			lth1			lth2			lth4			lth3			llfc			lmfc			lsh1			lsh2			lsh3			lsh4			llmal			lcal			ltoe			lmt5			SBIKE			LBIKE			RBIKE			
		X1	Y1	Z1	X2	Y2	Z2	X3	Y3	Z3	X4	Y4	Z4	X5	Y5	Z5	X6	Y6	Z6	X7	Y7	Z7	X8	Y8	Z8	X9	Y9	Z9	X10	Y10	Z10	X11	Y11	Z11	X12	Y12	Z12	X13	Y13	Z13	X14	Y14	Z14	X15	Y15	Z15	X16	Y16	Z16	X17	Y17	Z17	X18	Y18	Z18	X19	Y19	Z19	X20	Y20	Z20	X21	Y21	Z21	X22	Y22	Z22	X23	Y23	Z23	X24	Y24	Z24	X25	Y25	Z25	X26	Y26	Z26	X27	Y27	Z27	X28	Y28	Z28	X29	Y29	Z29	X30	Y30	Z30	X31	Y31	Z31	X32	Y32	Z32	X33	Y33	Z33	X34	Y34	Z34	X35	Y35	Z35	X36	Y36	Z36	X37	Y37	Z37	X38	Y38	Z38	X39	Y39	Z39	X40	Y40	Z40	X41	Y41	Z41	X42	Y42	Z42	X43	Y43	Z43	X44	Y44	Z44	X45	Y45	Z45	X46	Y46	Z46	X47	Y47	Z47	X48	Y48	Z48	
1001	5.0050	803.738308	1390.414052	-134.640082	765.413575	1394.500227	-443.292696	786.881462	1446.347375	-289.454951	721.289448	1306.459362	-299.033240	593.874497	1148.460255	33.916681	728.585779	911.112197	-50.750102	543.276946	1122.410513	-517.149218	723.947573	920.950423	-406.070432	192.416272	1311.923370	-179.175725	319.814956	1350.070671	-354.967954	398.985423	1309.389648	-80.108761	333.416078	1275.923597	-345.379565	401.466153	1253.659833	-106.628493	240.415287	1340.354090	-135.797279	220.669423	1361.591718	-240.272149	331.265806	1177.761111	-36.173035	235.151772	1210.987283	-380.821604	396.592011	1034.912355	-68.271383	434.417216	958.920491	-92.577368	437.534722	873.799857	-94.271958	461.547444	969.535540	-114.707555	430.726309	734.689375	-120.995960	393.872892	730.670048	-220.500489	319.679523	643.972313	-82.346170	271.163941	571.363701	-90.815890	194.639765	528.958224	-77.988106	277.824682	560.764051	-130.648409	88.748911	439.841784	-68.001310	26.191317	483.598258	-98.003118	100.395739	202.768889	-126.974077	48.119318	263.343293	-53.540739	300.507980	1100.942159	-400.844275	370.598424	1049.723441	-416.890000	399.588334	1072.629305	-416.342716	407.899040	968.928384	-419.760680	507.145972	817.503516	-408.162212	511.451098	797.909026	-310.889843	422.483565	691.012984	-418.103183	399.297159	611.088361	-395.500550	333.199457	549.270612	-394.974976	409.174979	612.780283	-353.639522	253.543483	442.075156	-386.543450	178.979137	414.572243	-352.674007	460.848249	348.278842	-360.396555	375.208224	336.772197	-424.227041	-257.920186	969.333518	-234.036825	-75.672852	83.274194	-437.720269	-82.146457	79.836771	-40.308341	
1002	5.0100	804.938002	1390.936402	-135.754700	766.358841	1389.128743	-444.783760	787.765590	1443.784055	-291.086902	722.622279	1303.472951	-297.992254	596.001839	1149.418042	34.543470	728.132742	910.596726	-50.055026	540.305801	1118.826920	-515.573518	723.478141	920.306094	-404.792087	192.674137	1311.262978	-178.701862	320.337320	1347.362021	-355.354858	399.582174	1308.953271	-80.654443	332.631140	1273.199955	-345.813946	401.538356	1253.092176	-106.780544	240.916814	1339.803332	-135.967179	220.717262	1360.218266	-240.548223	332.192592	1177.825175	-35.343834	233.697108	1208.074195	-379.654072	397.804193	1035.644287	-67.735345	435.996177	959.960255	-91.687550	440.475501	874.790339	-92.647247	463.474440	970.627866	-113.742093	436.621412	735.833324	-121.497104	398.594663	731.930389	-220.327098	322.500245	649.104071	-82.999974	272.683324	577.574084	-90.608433	194.938776	537.444671	-78.271009	278.503428	566.291479	-130.480327	86.912854	450.358031	-68.215473	24.572570	494.313659	-98.294286	100.093509	213.889298	-126.399286	46.866991	274.176223	-53.071405	297.153276	1097.118863	-399.791192	366.056841	1044.434189	-416.031561	395.544140	1066.753019	-415.902085	401.705801	962.858537	-418.611207	498.970954	810.962200	-407.058570	503.462079	790.740446	-310.104612	417.613772	683.398744	-417.770078	395.482812	602.789605	-394.803441	330.881344	539.249015	-394.886635	403.673135	604.904893	-353.300706	252.520476	430.473770	-388.748580	177.695116	401.727637	-352.090824	460.821281	338.137284	-360.559339	375.131793	324.912889	-423.525622	-257.906491	969.410332	-233.339926	-75.774390	83.304620	-437.658574	-82.339191	79.685025	-40.212547	
1003	5.0150	805.816738	1391.973687	-136.675086	767.482608	1384.073699	-445.599109	788.612622	1441.247123	-292.404960	723.811103	1300.606158	-296.325881	597.993722	1150.339000	35.143513	727.731926	910.327451	-49.350747	537.436694	1115.446242	-514.152794	723.173169	919.636866	-403.492728	192.881969	1310.218973	-178.539084	320.965219	1344.462662	-355.822408	400.102654	1308.445785	-81.340830	332.224910	1270.355623	-346.325685	401.471940	1252.337026	-106.944372	241.818419	1338.816294	-137.260074	220.624489	1358.445750	-240.892886	332.703775	1177.764110	-34.641138	232.581194	1205.228452	-378.652692	398.595140	1036.042314	-66.820465	437.500682	960.678051	-90.405086	442.969865	875.639072	-90.792975	464.910468	971.508319	-112.461867	442.627611	737.138844	-121.580877	404.277397	732.906049	-220.178418	325.823693	654.045552	-83.557432	274.133559	583.560857	-90.865614	195.585851	545.631005	-78.712489	280.374646	571.671312	-130.373983	85.364707	461.087087	-68.535929	23.025883	505.319634	-98.588326	100.662195	225.307484	-125.921678	46.556112	285.381641	-52.812573	294.071950	1093.488841	-398.967393	361.639161	1039.162336	-415.232063	391.565874	1060.720946	-415.599350	395.523885	956.818285	-417.432950	491.037530	804.408433	-405.678377	496.275414	783.823590	-308.068220	411.891584	676.088684	-417.121038	391.239660	595.020425	-394.476982	328.021579	530.129479	-394.870803	399.231131	597.167297	-352.755179	251.617215	419.046434	-389.292228	175.694781	391.101089	-353.380718	460.417746	328.234864	-361.504952	374.498789	313.743484	-423.599177	-257.890892	969.449223	-232.653499	-75.857952	83.348000	-437.613564	-82.421952	79.659924	-40.184483	
1004	5.0200	806.475663	1393.224287	-137.243169	768.618342	1379.503972	-445.949025	789.431545	1438.914341	-293.666731	724.662132	1298.149375	-294.510698	599.741059	1151.311538	35.636519	727.420043	910.123793	-48.642673	534.900854	1112.341955	-513.010722	723.825806	920.184533	-404.398679	193.054778	1309.058718	-178.762919	321.703249	1341.392300	-356.370767	400.355522	1307.911939	-82.012388	332.060649	1267.523929	-347.153227	400.887035	1251.727349	-107.028469	241.513146	1338.341284	-136.868330	220.758756	1356.563654	-241.797002	332.704654	1177.677555	-34.207109	231.763105	1202.394733	-377.974463	399.100976	1036.257638	-65.647449	438.859628	961.216880	-88.791079	445.300497	876.219383	-88.697759	466.081107	972.296897	-111.057539	448.855742	738.684099	-121.449993	410.660788	734.167752	-220.010530	329.629994	658.862754	-83.843827	276.229814	589.696085	-91.014796	196.654017	553.859311	-79.128561	283.274077	577.196852	-130.257135	84.330796	472.056972	-69.079959	21.676586	516.306060	-99.339106	102.234606	237.028377	-125.386758	47.118917	296.737785	-52.590324	291.209636	1089.798850	-398.150433	357.400824	1033.792642	-414.424384	387.859350	1054.729967	-415.118490	389.501945	950.746052	-416.046984	483.120588	797.532287	-404.014340	487.308113	777.715390	-307.803631	405.180013	669.017938	-416.289174	386.545158	587.414063	-394.474129	324.370075	521.421895	-394.566688	394.642956	589.255635	-352.850340	250.278505	408.078930	-389.410863	174.312449	379.610693	-353.525126	459.202584	316.904550	-360.205646	373.572774	302.922945	-423.348091	-257.987110	969.431938	-232.332871	-75.883170	83.359816	-437.577193	-82.448539	79.625107	-40.148675	
1005	5.0250	807.184733	1394.310672	-137.868273	769.715969	1375.650101	-445.793440	790.166826	1436.947157	-294.726852	725.606920	1296.037045	-292.960774	601.081897	1152.275657	36.199358	727.377504	909.985068	-48.082735	532.877653	1109.506192	-512.279939	723.901683	919.581160	-403.536574	193.181147	1307.752752	-179.395188	322.556007	1338.170636	-357.000097	400.355869	1307.281394	-82.645249	332.343185	1264.574182	-347.874868	400.515304	1250.768757	-107.200014	241.452927	1337.295477	-137.556928	220.974187	1354.556885	-242.378888	332.333419	1177.393750	-33.678807	231.436560	1199.573908	-377.627428	399.523474	1036.372282	-64.111174	440.271578	961.724989	-86.842562	447.759892	876.626817	-86.596635	467.183734	972.978989	-109.535034	455.218293	740.405528	-121.024976	421.408067	733.433230	-213.936770	333.699054	663.830171	-83.945847	278.437107	595.866279	-91.305966	197.576442	561.990241	-79.884608	285.357338	582.484652	-130.804584	83.692404	483.331438	-69.811480	20.687534	527.209641	-100.271381	104.596068	248.862920	-124.993360	48.526899	308.064572	-52.400837	288.687844	1086.024392	-397.450613	353.515959	1028.416129	-413.457051	384.360076	1048.758435	-414.569157	383.719405	944.660695	-414.535759	475.150750	790.661651	-402.247825	479.042638	770.428191	-306.078537	397.747250	661.860189	-415.452036	380.635081	579.602126	-394.701280	319.676749	512.636154	-393.613499	390.326865	579.930835	-352.746236	248.388255	397.686526	-388.957251	172.565182	368.618470	-353.209553	457.586850	306.372630	-360.005655	371.973536	292.354161	-423.024053	-258.114349	969.393787	-232.572058	-75.858354	83.357103	-437.552239	-82.462270	79.618755	-40.123737	
1006	5.0300	807.978979	1395.247650	-138.457905	766.856807	1371.460932	-453.274278	790.793909	1435.238556	-295.599453	722.893300	1295.924669	-290.677404	602.455658	1152.923522	36.684645	727.493741	909.759923	-47.733994	531.599829	1106.939345	-512.142390	723.994864	919.041557	-402.785263	193.231109	1306.299686	-180.383857	323.528086	1334.817376	-357.710558	400.106656	1306.555129	-83.363430	332.924136	1261.511951	-348.496990	399.970546	1249.840322	-107.332247	241.268463	1335.738467	-138.731745	221.447438	1352.630747	-244.222096	331.646464	1177.064522	-33.085128	231.456219	1196.833519	-377.515324	400.074743	1036.107547	-62.321986	442.240735	962.180825	-84.742828	450.715073	877.391851	-84.807948	468.630087	973.805802	-107.878224	461.545596	742.361539	-120.167212	435.056418	733.629556	-212.033477	338.402459	668.682931	-83.857515	281.198946	602.221780	-91.492851	199.852500	570.534170	-80.153488	288.120430	588.501614	-130.825177	83.484630	494.887295	-70.597377	20.073912	537.982232	-101.250142	107.847187	260.756138	-124.599329	50.881066	319.580174	-52.265307	286.428157	1082.193911	-396.968022	349.979549	1023.080845	-412.540346	381.214228	1042.633034	-413.772466	378.224677	938.571458	-413.045332	466.901279	783.382365	-399.921402	469.473313	762.646657	-305.747574	390.182819	654.202984	-414.473213	381.213085	572.616601	-387.233119	314.625861	503.539020	-392.916710	384.624958	571.274842	-352.080060	245.752916	387.592379	-388.250982	171.399377	357.388810	-352.940039	455.308279	295.763316	-359.756159	369.694037	281.980936	-422.711139	-258.196969	969.351486	-232.840541	-75.827182	83.387586	-437.547809	-82.452402	79.629319	-40.114139	
